<?xml version="1.0" encoding="UTF-8" standalone="no"?>
<!-- Created with Inkscape (http://www.inkscape.org/) -->
<svg xmlns:dc="http://purl.org/dc/elements/1.1/" xmlns:cc="http://web.resource.org/cc/" xmlns:rdf="http://www.w3.org/1999/02/22-rdf-syntax-ns#" xmlns:svg="http://www.w3.org/2000/svg" xmlns="http://www.w3.org/2000/svg" xmlns:xlink="http://www.w3.org/1999/xlink" xmlns:sodipodi="http://sodipodi.sourceforge.net/DTD/sodipodi-0.dtd" xmlns:inkscape="http://www.inkscape.org/namespaces/inkscape" id="svg1968" sodipodi:version="0.32" inkscape:version="0.44" width="800" height="900" version="1.0" sodipodi:docbase="/home/icehand/Bilder/Inkscape" sodipodi:docname="peppo_candle.svg" inkscape:export-filename="/home/icehand/Bilder/Peppo/Peppo-Arm und Kerze-wp02.png" inkscape:export-xdpi="135" inkscape:export-ydpi="135">
  <metadata id="metadata1973">
    <rdf:RDF>
      <cc:Work rdf:about="">
        <dc:format>image/svg+xml</dc:format>
        <dc:type rdf:resource="http://purl.org/dc/dcmitype/StillImage"/>
      </cc:Work>
    </rdf:RDF>
  </metadata>
  <defs id="defs1971">
    <linearGradient inkscape:collect="always" id="linearGradient17439">
      <stop style="stop-color:white;stop-opacity:1;" offset="0" id="stop17441"/>
      <stop style="stop-color:white;stop-opacity:0;" offset="1" id="stop17443"/>
    </linearGradient>
    <linearGradient inkscape:collect="always" id="linearGradient53554">
      <stop style="stop-color:black;stop-opacity:1;" offset="0" id="stop53556"/>
      <stop style="stop-color:black;stop-opacity:0;" offset="1" id="stop53558"/>
    </linearGradient>
    <linearGradient inkscape:collect="always" id="linearGradient52659">
      <stop style="stop-color:black;stop-opacity:1;" offset="0" id="stop52661"/>
      <stop style="stop-color:black;stop-opacity:0;" offset="1" id="stop52663"/>
    </linearGradient>
    <linearGradient inkscape:collect="always" id="linearGradient51762">
      <stop style="stop-color:black;stop-opacity:1;" offset="0" id="stop51764"/>
      <stop style="stop-color:black;stop-opacity:0;" offset="1" id="stop51766"/>
    </linearGradient>
    <linearGradient inkscape:collect="always" id="linearGradient49973">
      <stop style="stop-color:black;stop-opacity:1;" offset="0" id="stop49975"/>
      <stop style="stop-color:black;stop-opacity:0;" offset="1" id="stop49977"/>
    </linearGradient>
    <linearGradient inkscape:collect="always" id="linearGradient48181">
      <stop style="stop-color:black;stop-opacity:1;" offset="0" id="stop48183"/>
      <stop style="stop-color:black;stop-opacity:0;" offset="1" id="stop48185"/>
    </linearGradient>
    <linearGradient id="linearGradient44590">
      <stop style="stop-color:white;stop-opacity:1;" offset="0" id="stop44592"/>
      <stop style="stop-color:white;stop-opacity:0;" offset="1" id="stop44594"/>
    </linearGradient>
    <linearGradient id="linearGradient43687">
      <stop style="stop-color:#f7d18b;stop-opacity:1;" offset="0" id="stop43689"/>
      <stop style="stop-color:#684300;stop-opacity:1;" offset="1" id="stop43691"/>
    </linearGradient>
    <linearGradient inkscape:collect="always" id="linearGradient33908">
      <stop style="stop-color:#ccab6e;stop-opacity:1;" offset="0" id="stop33910"/>
      <stop style="stop-color:#ccab6e;stop-opacity:0;" offset="1" id="stop33912"/>
    </linearGradient>
    <linearGradient id="linearGradient20557">
      <stop style="stop-color:#ffd68a;stop-opacity:1;" offset="0" id="stop20559"/>
      <stop style="stop-color:#ffd68a;stop-opacity:0;" offset="1" id="stop20561"/>
    </linearGradient>
    <linearGradient inkscape:collect="always" id="linearGradient16100">
      <stop style="stop-color:#ffd689;stop-opacity:1;" offset="0" id="stop16102"/>
      <stop style="stop-color:#ffd689;stop-opacity:0;" offset="1" id="stop16104"/>
    </linearGradient>
    <linearGradient id="linearGradient9000">
      <stop style="stop-color:#fff269;stop-opacity:1;" offset="0" id="stop9002"/>
      <stop id="stop9008" offset="0.80000001" style="stop-color:#fff269;stop-opacity:0.49803922;"/>
      <stop style="stop-color:#fff269;stop-opacity:0;" offset="1" id="stop9004"/>
    </linearGradient>
    <linearGradient id="linearGradient6327">
      <stop style="stop-color:black;stop-opacity:1;" offset="0" id="stop6329"/>
      <stop style="stop-color:black;stop-opacity:0;" offset="1" id="stop6331"/>
    </linearGradient>
    <pattern patternUnits="userSpaceOnUse" width="600" height="700" patternTransform="translate(0,154)" id="pattern3722">
      <image y="0" x="0" id="image1932" height="700" width="600" sodipodi:absref="/home/icehand/Bilder/Peppo/white_tex.png" xlink:href="white_tex.png"/>
    </pattern>
    <radialGradient inkscape:collect="always" xlink:href="#linearGradient33908" id="radialGradient33914" cx="651.00018" cy="332.00018" fx="651.00018" fy="332.00018" r="139" gradientTransform="matrix(1.366906,1.064748e-6,-5.828092e-7,0.748201,-238.8559,83.59643)" gradientUnits="userSpaceOnUse"/>
    <radialGradient inkscape:collect="always" xlink:href="#linearGradient44590" id="radialGradient44596" cx="723.42749" cy="474.83139" fx="723.42749" fy="474.83139" r="618.96143" gradientTransform="matrix(1,0,0,0.673699,0,154.9379)" gradientUnits="userSpaceOnUse"/>
    <radialGradient inkscape:collect="always" xlink:href="#linearGradient17439" id="radialGradient17445" cx="665" cy="349" fx="665" fy="349" r="249" gradientUnits="userSpaceOnUse"/>
    <linearGradient inkscape:collect="always" xlink:href="#linearGradient49973" id="linearGradient1950" gradientUnits="userSpaceOnUse" x1="237.42264" y1="640.7099" x2="353.9577" y2="558.46814"/>
    <linearGradient inkscape:collect="always" xlink:href="#linearGradient51762" id="linearGradient1956" gradientUnits="userSpaceOnUse" x1="499.96613" y1="854.21265" x2="550.15625" y2="776.44305"/>
    <linearGradient inkscape:collect="always" xlink:href="#linearGradient48181" id="linearGradient1959" gradientUnits="userSpaceOnUse" x1="7.9304342" y1="215.74852" x2="98.721321" y2="183.93263"/>
    <linearGradient inkscape:collect="always" xlink:href="#linearGradient53554" id="linearGradient1965" gradientUnits="userSpaceOnUse" x1="629" y1="810" x2="635" y2="679"/>
    <radialGradient inkscape:collect="always" xlink:href="#linearGradient9000" id="radialGradient1971" gradientUnits="userSpaceOnUse" gradientTransform="matrix(1.546839,0.548232,-0.223101,0.629482,-275.4116,-223.9413)" cx="648.59064" cy="355.27722" fx="648.59064" fy="355.27722" r="11.366265"/>
    <radialGradient inkscape:collect="always" xlink:href="#linearGradient16100" id="radialGradient1975" gradientUnits="userSpaceOnUse" gradientTransform="matrix(2.060207,0.235601,-0.173051,1.513246,-625.2353,-336.0743)" cx="648.0528" cy="357.31937" fx="648.0528" fy="357.31937" r="20.902149"/>
    <linearGradient inkscape:collect="always" xlink:href="#linearGradient52659" id="linearGradient1979" gradientUnits="userSpaceOnUse" x1="668.92303" y1="730.48108" x2="683.06512" y2="689.27362"/>
  </defs>
  <sodipodi:namedview inkscape:window-height="949" inkscape:window-width="1278" inkscape:pageshadow="2" inkscape:pageopacity="0.0" guidetolerance="10.0" gridtolerance="10.0" objecttolerance="10.0" borderopacity="1.0" bordercolor="#666666" pagecolor="#ffffff" id="base" showguides="true" inkscape:zoom="0.5" inkscape:cx="494.65469" inkscape:cy="463.22026" inkscape:window-x="0" inkscape:window-y="24" inkscape:current-layer="svg1968" width="800px" height="900px" inkscape:guide-bbox="true" borderlayer="true"/>
  <path style="fill:#ebdcdb;fill-opacity:1;fill-rule:evenodd;stroke:#854b52;stroke-width:2;stroke-linecap:butt;stroke-linejoin:miter;stroke-miterlimit:4;stroke-dasharray:none;stroke-opacity:1" d="M 548.13542,639.331 C 548.13542,639.331 588.24289,644.34443 599.10533,646.01557 C 609.96777,647.68672 625.84364,658.54916 625.84364,658.54916 L 598.26975,681.94518 L 534.76626,660.22031 L 548.13542,639.331 z " id="path2764" sodipodi:nodetypes="cscccc"/>
  <path style="fill:#ebdcdb;fill-opacity:1;fill-rule:evenodd;stroke:#854b52;stroke-width:2;stroke-linecap:butt;stroke-linejoin:miter;stroke-miterlimit:4;stroke-dasharray:none;stroke-opacity:1" d="M -125.22473,-53.728888 C -136.64805,-43.851218 32.50674,231.99649 41.30838,249.61133 C 50.11004,267.22618 62.21231,310.16236 77.6152,329.97906 C 93.01809,349.79576 212.35314,276.30208 212.35314,276.30208 C 212.35314,276.30208 199.17267,236.67934 170.77733,189.315 C 141.76109,140.91498 141.33796,101.60452 68.883894,-58.709993 C 33.954959,-135.99503 -67.67793,-103.48926 -125.22473,-53.728888 z " id="path1977" sodipodi:nodetypes="csscsss"/>
  <path style="fill:#ebdcdb;fill-opacity:1;fill-rule:evenodd;stroke:#854b52;stroke-width:2;stroke-linecap:butt;stroke-linejoin:miter;stroke-miterlimit:4;stroke-dasharray:none;stroke-opacity:1" d="M 543.33432,729.60802 C 543.33432,729.60802 558.2674,733.05412 569.75438,733.62847 C 581.24137,734.20282 591.0053,732.47977 593.87705,733.62847 C 596.7488,734.77717 611.68187,749.71024 617.42537,754.30504 C 623.16886,758.89983 651.88632,784.74554 651.88632,784.74554 C 651.88632,784.74554 663.3733,796.23253 668.54244,798.52992 C 673.71159,800.82732 680.65905,804.92599 686.92162,802.55037 C 690.01261,801.37784 689.0437,799.46108 689.45017,797.61238 C 689.86775,795.71313 669.11679,768.66377 665.6707,764.64332 C 662.2246,760.62288 645.01457,745.00764 645.01457,745.00764 L 650.16327,740.52066 C 650.16327,740.52066 658.77851,742.24371 662.79895,743.96675 C 666.8194,745.6898 707.59819,762.34593 716.21342,764.06897 C 724.82866,765.79202 741.35264,764.30159 749.52568,756.02809 C 752.43316,753.08487 756.41787,756.02809 756.41787,753.15634 C 756.41787,750.28459 725.40301,741.09501 721.38257,738.79761 C 717.36212,736.50021 661.65025,707.20841 658.20416,706.05971 C 654.75806,704.91101 696.43058,706.26703 703.32277,706.25513 C 710.31002,706.24306 742.63349,706.05971 755.26917,699.74187 C 767.90485,693.42403 770.20225,680.78834 770.20225,680.78834 C 770.20225,680.78834 775.78605,679.26072 775.78605,676.38897 C 775.78605,673.51722 754.69482,674.4705 751.24872,675.04485 C 747.80263,675.6192 725.97736,676.19355 725.97736,676.19355 L 562.28784,696.29577 L 543.33432,729.60802 z " id="path1884" sodipodi:nodetypes="cssscssssccsssssssscssccc"/>
  <path sodipodi:nodetypes="cssscssssccsssssssscccc" id="path51772" d="M 543.33432,729.60802 C 543.33432,729.60802 558.2674,733.05412 569.75438,733.62847 C 581.24137,734.20282 591.0053,732.47977 593.87705,733.62847 C 596.7488,734.77717 611.68187,749.71024 617.42537,754.30504 C 623.16886,758.89983 651.88632,784.74554 651.88632,784.74554 C 651.88632,784.74554 663.3733,796.23253 668.54244,798.52992 C 673.71159,800.82732 680.65905,804.92599 686.92162,802.55037 C 690.01261,801.37784 689.0437,799.46108 689.45017,797.61238 C 689.86775,795.71313 669.11679,768.66377 665.6707,764.64332 C 662.2246,760.62288 645.01457,745.00764 645.01457,745.00764 L 650.16327,740.52066 C 650.16327,740.52066 658.77851,742.24371 662.79895,743.96675 C 666.8194,745.6898 707.59819,762.34593 716.21342,764.06897 C 724.82866,765.79202 741.35264,764.30159 749.52568,756.02809 C 752.43316,753.08487 756.41787,756.02809 756.41787,753.15634 C 756.41787,750.28459 725.40301,741.09501 721.38257,738.79761 C 717.36212,736.50021 661.65025,707.20841 658.20416,706.05971 C 654.75806,704.91101 696.43058,706.26703 703.32277,706.25513 C 710.31002,706.24306 742.63349,706.05971 755.26917,699.74187 C 767.90485,693.42403 765.2525,689.27362 765.2525,689.27362 C 751.22225,692.74648 725.37175,692.94348 717.49208,693.16411 L 562.28784,696.29577 L 543.33432,729.60802 z " style="opacity:0.4;fill:url(#linearGradient1979);fill-opacity:1;fill-rule:evenodd;stroke:none;stroke-width:2;stroke-linecap:butt;stroke-linejoin:miter;stroke-miterlimit:4;stroke-dasharray:none;stroke-opacity:1"/>
  <path style="fill:#ccab6e;fill-opacity:1;fill-rule:evenodd;stroke:#7e612c;stroke-width:2;stroke-linecap:butt;stroke-linejoin:miter;stroke-miterlimit:4;stroke-dasharray:none;stroke-opacity:1" d="M 634.97831,377.79751 C 634.97831,377.79751 628.27723,371.90868 627.66804,356.88201 C 627.05885,341.85534 645.65703,282.05862 653.11801,282.96704 C 661.01027,283.92797 671.45158,341.20799 667.86002,360.26701 C 665.42362,373.19608 658.1547,379.42202 658.1547,379.42202 L 634.97831,377.79751 z " id="path4546" sodipodi:nodetypes="cssscc"/>
  <path sodipodi:nodetypes="cssscc" id="path15213" d="M 634.97831,377.79751 C 634.97831,377.79751 628.27723,371.90868 627.66804,356.88201 C 627.05885,341.85534 643.19474,322.68639 650.65572,323.59481 C 658.54798,324.55574 671.45158,341.20799 667.86002,360.26701 C 665.42362,373.19608 658.1547,379.42202 658.1547,379.42202 L 634.97831,377.79751 z " style="fill:url(#radialGradient1975);fill-opacity:1;fill-rule:evenodd;stroke:none;stroke-width:1px;stroke-linecap:butt;stroke-linejoin:miter;stroke-opacity:0.77777782"/>
  <path style="fill:#525252;fill-opacity:1;fill-rule:evenodd;stroke:none;stroke-width:1px;stroke-linecap:butt;stroke-linejoin:miter;stroke-opacity:1" d="M 649.12403,377.63481 C 649.12403,377.63481 652.62563,349.61686 653.36667,347.22922 C 655.70741,339.68735 654.11706,366.92694 653.72022,369.14953 C 652.65956,374.09928 651.24535,384.35232 651.24535,384.35232 L 649.12403,377.63481 z " id="path4553" sodipodi:nodetypes="csscc"/>
  <path style="fill:url(#radialGradient1971);fill-opacity:1;fill-rule:evenodd;stroke:none;stroke-width:1px;stroke-linecap:butt;stroke-linejoin:miter;stroke-opacity:1" d="M 638.07487,356.52152 C 639.90338,358.59147 643.20667,362.43201 651.41758,362.43201 C 659.62847,362.43201 660.65483,357.88548 659.62847,355.15756 C 658.60211,352.42964 653.98347,346.9738 644.23304,348.33776 C 634.48261,349.70172 637.59406,355.97721 638.07487,356.52152 z " id="path5440" sodipodi:nodetypes="cssss"/>
  <path sodipodi:nodetypes="csscc" id="path8113" d="M 643.46717,381.87745 C 643.46717,381.87745 639.57809,362.78557 641.34585,353.23963 C 643.11362,343.69368 642.76007,361.37135 643.46717,364.55333 C 644.17428,367.73531 645.94205,377.28126 645.94205,377.28126 L 643.46717,381.87745 z " style="fill:#3d3d3d;fill-opacity:1;fill-rule:evenodd;stroke:none;stroke-width:1px;stroke-linecap:butt;stroke-linejoin:miter;stroke-opacity:1"/>
  <path style="fill:white;fill-opacity:1;fill-rule:evenodd;stroke:#854b52;stroke-width:2;stroke-linecap:butt;stroke-linejoin:miter;stroke-miterlimit:4;stroke-dasharray:none;stroke-opacity:1" d="M 621.77921,607.46188 C 624.3018,530.94235 629.8247,379.79683 631.52624,378.00057 C 634.99502,374.3387 640.05489,374.34544 646.95903,374.75157 C 653.86318,375.15769 660.56426,376.57913 662.59489,380.64039 C 661.8018,457.07344 655.24858,533.75926 656.29994,610.30476 L 621.77921,607.46188 z " id="path4544" sodipodi:nodetypes="cssscc"/>
  <path style="fill:#b1afaf;fill-opacity:1;fill-rule:evenodd;stroke:#854b52;stroke-width:2;stroke-linecap:butt;stroke-linejoin:miter;stroke-miterlimit:4;stroke-dasharray:none;stroke-opacity:1" d="M 597.89749,823.22694 C 597.89749,823.22694 618.08508,826.16694 634.08149,826.09869 C 650.82636,826.02973 692.94066,825.39784 694.9625,824.94999 C 697.11285,824.47367 683.47552,818.63215 673.13724,814.6117 C 662.79895,810.59126 654.75806,807.14516 654.75806,807.14516 C 654.75806,807.14516 650.14143,691.90109 657.05546,623.92777 C 657.24675,622.04717 668.54244,612.44079 667.39374,608.9947 C 666.24505,605.5486 642.12238,604.3999 636.95324,604.3999 C 631.7841,604.3999 610.69461,603.02015 608.81013,606.12295 C 606.63849,609.69856 619.19102,622.54229 619.14841,623.35343 C 613.76727,725.2261 606.51273,810.59126 606.51273,810.59126 L 597.89749,823.22694 z " id="path3657" sodipodi:nodetypes="cssscssssscc"/>
  <path sodipodi:nodetypes="cssscssssscc" id="path52667" d="M 597.89749,823.22694 C 597.89749,823.22694 618.08508,826.16694 634.08149,826.09869 C 650.82636,826.02973 692.94066,825.39784 694.9625,824.94999 C 697.11285,824.47367 683.47552,818.63215 673.13724,814.6117 C 662.79895,810.59126 654.75806,807.14516 654.75806,807.14516 C 654.75806,807.14516 650.14143,691.90109 657.05546,623.92777 C 657.24675,622.04717 668.54244,612.44079 667.39374,608.9947 C 666.24505,605.5486 642.12238,604.3999 636.95324,604.3999 C 631.7841,604.3999 610.69461,603.02015 608.81013,606.12295 C 606.63849,609.69856 619.19102,622.54229 619.14841,623.35343 C 613.76727,725.2261 606.51273,810.59126 606.51273,810.59126 L 597.89749,823.22694 z " style="opacity:0.4;fill:url(#linearGradient1965);fill-opacity:1;fill-rule:evenodd;stroke:none;stroke-width:2;stroke-linecap:butt;stroke-linejoin:miter;stroke-miterlimit:4;stroke-dasharray:none;stroke-opacity:1"/>
  <path sodipodi:nodetypes="cccsssscsccssssssscsssssc" id="path11087" d="M 522.45032,655.42451 L 462.28911,779.08921 L 474.8227,792.45837 C 474.8227,792.45837 496.54758,797.4718 504.06773,798.30738 C 511.58788,799.14295 514.93017,800.81408 523.28589,803.3208 C 531.64161,805.82752 539.99733,806.66309 545.01077,809.16981 C 550.0242,811.67653 556.7688,816.77453 566.73565,824.2101 C 575.06412,830.42339 590.04898,837.09661 596.60192,840.69015 C 602.80574,847.90055 609.34285,857.77216 618.47924,859.8022 C 621.90584,860.56357 626.4166,852.01598 626.4166,852.01598 L 625.9457,850.22778 C 638.58213,840.2344 621.69002,821.03693 618.09538,816.36846 C 607.32303,802.37806 579.16207,787.32069 574.14863,783.9784 C 569.1352,780.63611 545.49068,763.33758 545.01077,759.03547 C 544.64023,755.71379 545.79651,740.8024 550.0242,728.1193 C 550.85977,725.61258 563.39336,720.59915 570.91351,715.58572 C 578.43366,710.57228 588.46052,705.55885 594.30953,704.72327 C 600.15854,703.8877 628.72014,700.43516 637.22341,699.88256 C 659.65311,697.82742 767.90558,685.6002 750.56155,652.08222 C 750.56155,652.08222 753.42186,646.46942 750.15263,646.23322 C 739.90952,645.49316 719.83583,653.21748 704.79553,654.88862 C 689.75523,656.55977 671.9188,658.23092 646.95059,659.60238 C 638.56583,660.06294 622.71899,662.10909 615.19884,660.43795 C 607.67869,658.7668 593.47396,656.26009 586.78938,653.75337 C 582.87753,652.28643 570.07794,655.42451 570.07794,655.42451" style="fill:#ebdcdb;fill-opacity:1;fill-rule:evenodd;stroke:#854b52;stroke-width:2;stroke-linecap:butt;stroke-linejoin:miter;stroke-miterlimit:4;stroke-dasharray:none;stroke-opacity:1"/>
  <path sodipodi:nodetypes="cccsssscsccssssssscsssssc" id="path11089" d="M 522.45032,655.42451 L 462.28911,779.08921 L 474.8227,792.45837 C 474.8227,792.45837 496.54758,797.4718 504.06773,798.30738 C 511.58788,799.14295 514.93017,800.81408 523.28589,803.3208 C 531.64161,805.82752 539.99733,806.66309 545.01077,809.16981 C 550.0242,811.67653 556.7688,816.77453 566.73565,824.2101 C 575.06412,830.42339 590.04898,837.09661 596.60192,840.69015 C 602.80574,847.90055 609.34285,857.77216 618.47924,859.8022 C 621.90584,860.56357 626.4166,852.01598 626.4166,852.01598 L 625.9457,850.22778 C 638.58213,840.2344 621.69002,821.03693 618.09538,816.36846 C 607.32303,802.37806 579.16207,787.32069 574.14863,783.9784 C 569.1352,780.63611 545.49068,763.33758 545.01077,759.03547 C 544.64023,755.71379 545.79651,740.8024 550.0242,728.1193 C 550.85977,725.61258 563.39336,720.59915 570.91351,715.58572 C 578.43366,710.57228 588.46052,705.55885 594.30953,704.72327 C 600.15854,703.8877 628.72014,700.43516 637.22341,699.88256 C 659.65311,697.82742 767.90558,685.6002 750.56155,652.08222 C 750.56155,652.08222 753.42186,646.46942 750.15263,646.23322 C 739.90952,645.49316 719.83583,653.21748 704.79553,654.88862 C 689.75523,656.55977 671.9188,658.23092 646.95059,659.60238 C 638.56583,660.06294 622.71899,662.10909 615.19884,660.43795 C 607.67869,658.7668 593.47396,656.26009 586.78938,653.75337 C 582.87753,652.28643 570.07794,655.42451 570.07794,655.42451" style="fill:#ebdcdb;fill-opacity:1;fill-rule:evenodd;stroke:#854b52;stroke-width:2;stroke-linecap:butt;stroke-linejoin:miter;stroke-miterlimit:4;stroke-dasharray:none;stroke-opacity:1"/>
  <path style="fill:#ebdcdb;fill-opacity:1;fill-rule:evenodd;stroke:#854b52;stroke-width:2;stroke-linecap:butt;stroke-linejoin:miter;stroke-miterlimit:4;stroke-dasharray:none;stroke-opacity:1" d="M 522.45032,655.42451 L 462.28911,779.08921 L 474.8227,792.45837 C 474.8227,792.45837 496.54758,797.4718 504.06773,798.30738 C 511.58788,799.14295 514.93017,800.81408 523.28589,803.3208 C 531.64161,805.82752 539.99733,806.66309 545.01077,809.16981 C 550.0242,811.67653 556.7688,816.77453 566.73565,824.2101 C 575.06412,830.42339 590.04898,837.09661 596.60192,840.69015 C 602.80574,847.90055 609.34285,857.77216 618.47924,859.8022 C 621.90584,860.56357 626.4166,852.01598 626.4166,852.01598 L 625.9457,850.22778 C 638.58213,840.2344 621.69002,821.03693 618.09538,816.36846 C 607.32303,802.37806 579.16207,787.32069 574.14863,783.9784 C 569.1352,780.63611 545.49068,763.33758 545.01077,759.03547 C 544.64023,755.71379 545.79651,740.8024 550.0242,728.1193 C 550.85977,725.61258 563.39336,720.59915 570.91351,715.58572 C 578.43366,710.57228 588.46052,705.55885 594.30953,704.72327 C 600.15854,703.8877 628.72014,700.43516 637.22341,699.88256 C 659.65311,697.82742 767.90558,685.6002 750.56155,652.08222 C 750.56155,652.08222 753.42186,646.46942 750.15263,646.23322 C 739.90952,645.49316 719.83583,653.21748 704.79553,654.88862 C 689.75523,656.55977 671.9188,658.23092 646.95059,659.60238 C 638.56583,660.06294 622.71899,662.10909 615.19884,660.43795 C 607.67869,658.7668 593.47396,656.26009 586.78938,653.75337 C 582.87753,652.28643 570.07794,655.42451 570.07794,655.42451" id="path3651" sodipodi:nodetypes="cccsssscsccssssssscsssssc"/>
  <path style="opacity:0.4;fill:url(#linearGradient1959);fill-opacity:1;fill-rule:evenodd;stroke:none;stroke-width:1px;stroke-linecap:butt;stroke-linejoin:miter;stroke-opacity:1" d="M -31.125,-47.34375 L -79.5625,42.5 C -32.035114,127.20727 35.823419,238.63963 41.3125,249.625 C 47.648303,262.30491 55.712375,288.05325 65.46875,308.90625 C 72.423931,290.89374 81.055851,267.79447 89.71875,255.125 C 104.02142,234.20738 101.34086,234.66022 131,222.53125 C 146.3993,216.23377 165.08323,209.54538 180.3125,205.9375 C 180.03639,205.43552 179.74858,204.91106 179.46875,204.40625 C 173.4753,205.46791 163.77907,206.69977 154.90625,205.8125 C 140.76411,204.39828 116.19727,146.03427 97.8125,117.75 C 79.427724,89.465723 28.84375,-31.749999 28.84375,-31.75 L -31.125,-47.34375 z " id="path45485"/>
  <path style="opacity:0.4;fill:url(#linearGradient1956);fill-opacity:1;fill-rule:evenodd;stroke:none;stroke-width:1px;stroke-linecap:butt;stroke-linejoin:miter;stroke-opacity:1" d="M 489.3125,724.125 L 470.0625,787.40625 L 474.8125,792.46875 C 474.81251,792.46875 496.54235,797.47692 504.0625,798.3125 C 511.58266,799.14808 514.92553,800.80578 523.28125,803.3125 C 531.63697,805.81922 539.98656,806.64953 545,809.15625 C 550.01346,811.66298 556.78315,816.78318 566.75,824.21875 C 575.07846,830.43206 590.04081,837.09396 596.59375,840.6875 C 602.79756,847.89793 609.33236,857.78246 618.46875,859.8125 C 621.89534,860.57388 626.40625,852.03125 626.40625,852.03125 L 625.9375,850.21875 C 628.34889,848.31173 629.69159,846.06868 630.25,843.65625 C 628.247,840.07813 626.11991,836.43305 624.375,833.71875 C 611.64707,813.91976 567.10355,789.88417 548.71875,777.15625 C 537.26694,769.22807 489.31249,724.12501 489.3125,724.125 z " id="path50867"/>
  <path style="fill:#e3dfe8;fill-opacity:1;fill-rule:evenodd;stroke:#854b52;stroke-width:2;stroke-linecap:butt;stroke-linejoin:miter;stroke-miterlimit:4;stroke-dasharray:none;stroke-opacity:1" d="M 45.70921,350.89668 C 45.70921,350.89668 65.51293,393.83287 75.41479,400.43843 C 85.31665,407.04399 119.42303,434.56719 126.02427,443.37462 C 132.62551,452.18203 150.22882,480.80616 156.83005,488.51265 C 163.43128,496.21915 245.94675,578.78873 251.44779,583.19244 C 256.94882,587.59614 265.75046,604.11007 274.55212,609.6147 C 283.35376,615.11934 289.95501,625.02769 295.45605,630.53233 C 300.95707,636.03697 307.55831,636.03697 308.65851,641.54161 C 309.75872,647.04624 335.06347,669.06481 337.26388,673.46851 C 339.46429,677.87222 339.46429,686.67965 343.86511,691.08336 C 348.26593,695.48707 362.56863,703.19356 369.16986,710.90006 C 375.77109,718.60655 396.67502,750.53345 402.17605,752.73531 C 407.67709,754.93716 420.87955,760.4418 430.78141,765.94644 C 440.68326,771.45109 457.18637,790.16685 464.88781,792.3687 C 472.58926,794.57056 486.73281,800.9007 484.69152,795.67149 C 482.54271,790.16685 474.78967,792.3687 478.09028,783.56129 C 481.3909,774.75386 494.59338,726.31305 511.09647,712.00097 C 527.59957,697.68892 533.10059,674.56943 538.60162,670.16573 C 544.10266,665.76202 559.50555,642.64253 559.50555,642.64253 L 573.80823,642.64253 C 573.80823,642.64253 573.89857,631.47769 568.30719,628.33048 C 550.70391,618.42213 475.88986,626.12862 469.28863,620.62398 C 462.6874,615.11934 464.88781,601.9082 454.98596,598.60543 C 445.0841,595.30264 441.78348,600.80728 432.98182,594.20171 C 424.18017,587.59614 407.67709,558.97203 397.77523,542.45811 C 387.87337,525.9442 343.86511,463.19131 325.16161,432.36533 C 306.4581,401.53937 242.64614,288.14381 236.0449,280.43731 C 229.44366,272.73082 218.67465,224.10652 208.35403,206.60007 C 202.57338,196.79457 160.67007,210.39702 131.01093,222.526 C 101.35179,234.65497 104.02014,234.19835 89.71747,255.11597 C 75.41479,276.0336 61.1121,325.57534 54.51086,333.28184 C 47.90963,340.98833 47.90963,349.79576 45.70921,350.89668 z " id="path3751" sodipodi:nodetypes="csssssssssssssssssccsssssssssssc"/>
  <path style="opacity:0.4;fill:url(#linearGradient1950);fill-opacity:1;fill-rule:evenodd;stroke:none;stroke-width:1px;stroke-linecap:butt;stroke-linejoin:miter;stroke-opacity:1" d="M 170.53125,208.53125 C 157.52792,212.28925 143.23078,217.52952 131,222.53125 C 101.34086,234.66022 104.02142,234.20738 89.71875,255.125 C 75.416072,276.04263 61.10124,325.57475 54.5,333.28125 C 47.89877,340.98775 47.91917,349.80533 45.71875,350.90625 C 45.718751,350.90626 65.50439,393.83194 75.40625,400.4375 C 85.308113,407.04307 119.43001,434.56757 126.03125,443.375 C 132.63249,452.1824 150.24252,480.79351 156.84375,488.5 C 163.44498,496.20649 245.93646,578.78379 251.4375,583.1875 C 256.93854,587.5912 265.76084,604.12037 274.5625,609.625 C 283.36414,615.12965 289.96771,625.02661 295.46875,630.53125 C 300.96977,636.03587 307.55605,636.02661 308.65625,641.53125 C 309.75646,647.03586 335.04959,669.06505 337.25,673.46875 C 339.4504,677.87246 339.47418,686.69004 343.875,691.09375 C 348.27582,695.49745 362.55502,703.19975 369.15625,710.90625 C 375.75748,718.61271 396.68647,750.54814 402.1875,752.75 C 407.68853,754.95187 420.87939,760.43286 430.78125,765.9375 C 440.68311,771.44218 457.17356,790.17315 464.875,792.375 C 472.57644,794.57685 483.58729,801.16089 484.6875,795.65625 C 485.78769,790.15159 474.79314,792.36991 478.09375,783.5625 C 480.14858,778.07938 486.05001,757.2509 494.1875,738.84375 C 477.27802,735.98599 451.69377,704.4486 445.125,703.71875 C 437.81473,702.90649 432.9338,678.53152 420.75,679.34375 C 391.38294,681.30154 388.25,642.80975 388.25,633.875 C 388.25,629.81373 390.68305,613.56225 376.0625,612.75 C 350.59653,611.33522 328.9675,531.53075 324.90625,529.90625 C 320.84499,528.28175 275.34077,451.08953 265.59375,437.28125 C 255.84672,423.47296 249.37254,389.37351 241.25,384.5 C 233.12748,379.62649 201.43551,299.21529 194.9375,287.84375 C 189.26641,277.91935 174.40222,223.02118 170.53125,208.53125 z " id="path49074"/>
  <path style="fill:none;fill-opacity:0.75;fill-rule:evenodd;stroke:#854b52;stroke-width:2;stroke-linecap:round;stroke-linejoin:miter;stroke-miterlimit:4;stroke-dasharray:none;stroke-opacity:1" d="M 624.48634,854.47799 C 626.7156,850.59834 623.40342,838.62758 613.80521,830.4691" id="path5423" sodipodi:nodetypes="cc"/>
  <path style="fill:none;fill-opacity:0.75;fill-rule:evenodd;stroke:#854b52;stroke-width:2;stroke-linecap:round;stroke-linejoin:miter;stroke-miterlimit:4;stroke-dasharray:none;stroke-opacity:1" d="M 773.34578,679.73029 C 766.57119,681.21783 763.47812,681.18966 757.10042,681.24601" id="path4547" sodipodi:nodetypes="cc"/>
  <path style="fill:none;fill-opacity:0.75;fill-rule:evenodd;stroke:#854b52;stroke-width:2;stroke-linecap:round;stroke-linejoin:miter;stroke-miterlimit:4;stroke-dasharray:none;stroke-opacity:1" d="M 752.77866,754.54062 C 752.77866,754.54062 746.11148,755.13719 740.80647,753.24254" id="path5434" sodipodi:nodetypes="cc"/>
  <path style="fill:none;fill-opacity:0.75;fill-rule:evenodd;stroke:#854b52;stroke-width:2;stroke-linecap:round;stroke-linejoin:miter;stroke-miterlimit:4;stroke-dasharray:none;stroke-opacity:1" d="M 751.0675,649.81204 C 749.05435,652.20606 743.88546,654.60007 741.05617,655.03535" id="path8091" sodipodi:nodetypes="cc"/>
</svg>